<svg fill="#FAB005" xmlns="http://www.w3.org/2000/svg"  viewBox="0 0 50 50" width="50px" height="50px"><path d="M -53.019531 -202.33984 A 0.250025 0.250025 0 0 0 -53.125 -202.30664 L -57.125 -200.00586 A 0.250025 0.250025 0 0 0 -57.25 -199.78906 L -57.25 -169.75977 A 0.250025 0.250025 0 0 0 -57.125 -169.54297 L -33.125 -155.69336 A 0.250025 0.250025 0 0 0 -32.875 -155.69336 L -28.875 -158.00391 A 0.250025 0.250025 0 0 0 -28.75 -158.2207 L -28.75 -188.24023 A 0.250025 0.250025 0 0 0 -28.875 -188.45703 L -52.875 -202.30664 A 0.250025 0.250025 0 0 0 -53.019531 -202.33984 z M 20.980469 -202.33984 A 0.250025 0.250025 0 0 0 20.875 -202.30664 L 17.904297 -200.5957 L 15.875 -199.42578 A 0.250025 0.250025 0 0 0 15.75 -199.21094 L 15.75 -197.04492 L 11.875 -194.80664 A 0.250025 0.250025 0 0 0 11.75 -194.58984 L 11.75 -177.26953 A 0.250025 0.250025 0 0 0 11.875 -177.05273 L 15.75 -174.81641 L 15.75 -172.79492 L 11.875 -170.55664 A 0.250025 0.250025 0 0 0 11.75 -170.33984 L 11.75 -168.0293 A 0.250025 0.250025 0 0 0 11.876953 -167.8125 L 12.335938 -167.55273 L 14.501953 -166.29883 L 12.255859 -164.99609 L 9.875 -163.62695 A 0.250025 0.250025 0 0 0 9.75 -163.41016 L 9.75 -161.09961 A 0.250025 0.250025 0 0 0 9.875 -160.88281 L 12.994141 -159.08398 A 0.250025 0.250025 0 0 0 12.996094 -159.08398 L 18.875 -155.69336 A 0.250025 0.250025 0 0 0 19.125 -155.69336 L 38.644531 -166.96289 L 40.125 -167.8125 A 0.250025 0.250025 0 0 0 40.25 -168.0293 L 40.25 -170.33984 A 0.250025 0.250025 0 0 0 40.125 -170.55664 L 39.765625 -170.76562 A 0.250025 0.250025 0 0 0 39.765625 -170.76758 L 37.25 -172.21484 L 37.25 -183.61914 A 0.250025 0.250025 0 0 0 37.125 -183.83594 L 31.345703 -187.17578 A 0.250025 0.250025 0 0 0 31.34375 -187.17773 L 30.25 -187.80469 L 30.25 -194.58984 A 0.250025 0.250025 0 0 0 30.125 -194.80664 L 26.25 -197.04492 L 26.25 -199.21094 A 0.250025 0.250025 0 0 0 26.125 -199.42578 L 24.095703 -200.5957 L 21.125 -202.30664 A 0.250025 0.250025 0 0 0 20.980469 -202.33984 z M 434.98047 -202.33984 A 0.250025 0.250025 0 0 0 434.875 -202.30664 L 428.875 -198.8457 A 0.250025 0.250025 0 0 0 428.75586 -198.57812 L 430.91602 -188.57031 L 428.125 -190.18555 A 0.250025 0.250025 0 0 0 427.875 -190.1875 L 421.875 -186.72656 A 0.250025 0.250025 0 0 0 421.75586 -186.45703 L 424.34766 -174.29492 L 419.875 -171.70703 A 0.250025 0.250025 0 0 0 419.7832 -171.36523 L 428.7832 -155.78516 A 0.250025 0.250025 0 0 0 429.125 -155.69336 L 438.125 -160.88281 L 444.125 -164.35352 A 0.250025 0.250025 0 0 0 444.125 -164.78711 L 438.21875 -168.19141 L 437.16797 -172.83789 L 439.875 -171.27344 A 0.250025 0.250025 0 0 0 440.125 -171.27344 L 446.125 -174.74414 A 0.250025 0.250025 0 0 0 446.24414 -175.01172 L 441.24414 -198.68164 A 0.250025 0.250025 0 0 0 441.125 -198.8457 L 435.125 -202.30664 A 0.250025 0.250025 0 0 0 434.98047 -202.33984 z M -53 -201.80078 L -29.25 -188.0957 L -29.25 -158.36328 L -33 -156.19922 L -56.75 -169.9043 L -56.75 -199.64453 L -53 -201.80078 z M 21 -201.80078 L 23.845703 -200.16406 L 25.75 -199.06641 L 25.75 -196.90039 A 0.250025 0.250025 0 0 0 25.875 -196.68359 L 29.75 -194.44531 L 29.75 -187.66016 A 0.250025 0.250025 0 0 0 29.875 -187.44336 L 31.095703 -186.74414 L 36.75 -183.47656 L 36.75 -172.07031 A 0.250025 0.250025 0 0 0 36.875 -171.85352 L 39.513672 -170.33398 L 39.75 -170.19727 L 39.75 -168.17383 L 38.394531 -167.39648 L 19 -156.19922 L 13.244141 -159.51562 L 10.25 -161.24414 L 10.25 -163.26562 L 12.503906 -164.5625 A 0.250025 0.250025 0 0 0 12.505859 -164.56445 L 15.125 -166.08398 A 0.250025 0.250025 0 0 0 15.125 -166.51562 L 12.585938 -167.98633 A 0.250025 0.250025 0 0 0 12.583984 -167.98828 L 12.25 -168.17578 L 12.25 -170.19531 L 16.125 -172.43359 A 0.250025 0.250025 0 0 0 16.25 -172.65039 L 16.25 -174.96094 A 0.250025 0.250025 0 0 0 16.125 -175.17578 L 12.25 -177.41406 L 12.25 -194.44531 L 16.125 -196.68359 A 0.250025 0.250025 0 0 0 16.25 -196.90039 L 16.25 -199.06641 L 18.154297 -200.16406 L 21 -201.80078 z M 435 -201.80078 L 440.7793 -198.46875 L 445.71875 -175.08594 L 440 -171.7793 L 436.92578 -173.55664 A 0.250025 0.250025 0 0 0 436.55664 -173.28516 L 437.75586 -167.97461 A 0.250025 0.250025 0 0 0 437.875 -167.8125 L 443.5 -164.57031 L 437.875 -161.31641 L 429.0918 -156.25195 L 420.3418 -171.39844 L 424.75586 -173.95312 A 0.250025 0.250025 0 0 0 424.875 -174.22266 L 422.2832 -186.38477 L 428 -189.68164 L 431.1543 -187.85352 A 0.250025 0.250025 0 0 0 431.52344 -188.12305 L 429.2832 -198.50391 L 435 -201.80078 z M 92.980469 -201.18945 A 0.250025 0.250025 0 0 0 92.875 -201.15625 L 88.875 -198.8457 A 0.250025 0.250025 0 0 0 88.75 -198.63086 L 88.75 -194.00977 A 0.250025 0.250025 0 0 0 88.875 -193.79297 L 89.5 -193.42969 L 76.875 -186.14648 A 0.250025 0.250025 0 0 0 76.75 -185.92969 L 76.75 -166.30078 A 0.250025 0.250025 0 0 0 76.875 -166.08398 L 92.875 -156.84375 A 0.250025 0.250025 0 0 0 93.125 -156.84375 L 109.125 -166.08398 A 0.250025 0.250025 0 0 0 109.25 -166.30078 L 109.25 -185.92969 A 0.250025 0.250025 0 0 0 109.125 -186.14648 L 96.5 -193.42969 L 97.125 -193.79297 A 0.250025 0.250025 0 0 0 97.25 -194.00977 L 97.25 -198.63086 A 0.250025 0.250025 0 0 0 97.125 -198.8457 L 93.125 -201.15625 A 0.250025 0.250025 0 0 0 92.980469 -201.18945 z M 282.98047 -201.18945 A 0.250025 0.250025 0 0 0 282.875 -201.15625 L 280.875 -199.99609 A 0.250025 0.250025 0 0 0 280.75 -199.7793 L 280.75 -189.39062 A 0.250025 0.250025 0 0 0 280.875 -189.17383 L 282.875 -188.02344 A 0.250025 0.250025 0 0 0 283.125 -188.02344 L 285 -189.10156 L 286.875 -188.02344 A 0.250025 0.250025 0 0 0 287.125 -188.02344 L 289.125 -189.17383 A 0.250025 0.250025 0 0 0 289.25 -189.39062 L 289.25 -197.48047 A 0.250025 0.250025 0 0 0 289.125 -197.69727 L 287.125 -198.84766 A 0.250025 0.250025 0 0 0 286.875 -198.84766 L 285.25 -197.91211 L 285.25 -199.7793 A 0.250025 0.250025 0 0 0 285.125 -199.99609 L 283.125 -201.15625 A 0.250025 0.250025 0 0 0 282.98047 -201.18945 z M 310.98047 -201.18945 A 0.250025 0.250025 0 0 0 310.875 -201.15625 L 308.875 -199.99609 A 0.250025 0.250025 0 0 0 308.75 -199.7793 L 308.75 -197.91211 L 307.125 -198.84766 A 0.250025 0.250025 0 0 0 306.875 -198.84766 L 304.875 -197.69727 A 0.250025 0.250025 0 0 0 304.75 -197.48047 L 304.75 -189.39062 A 0.250025 0.250025 0 0 0 304.875 -189.17383 L 306.875 -188.02344 A 0.250025 0.250025 0 0 0 307.125 -188.02344 L 309 -189.10156 L 310.875 -188.02344 A 0.250025 0.250025 0 0 0 311.125 -188.02344 L 313.125 -189.17383 A 0.250025 0.250025 0 0 0 313.25 -189.39062 L 313.25 -199.7793 A 0.250025 0.250025 0 0 0 313.125 -199.99609 L 311.125 -201.15625 A 0.250025 0.250025 0 0 0 310.98047 -201.18945 z M 364.98047 -201.18945 A 0.250025 0.250025 0 0 0 364.875 -201.15625 L 352.875 -194.22656 A 0.250025 0.250025 0 0 0 352.77148 -194.10938 L 348.77148 -184.86914 A 0.250025 0.250025 0 0 0 348.7832 -184.64453 L 358.75 -167.38281 L 358.75 -160.51953 A 0.250025 0.250025 0 0 0 358.875 -160.30273 L 364.875 -156.84375 A 0.250025 0.250025 0 0 0 365.125 -156.84375 L 371.125 -160.30273 A 0.250025 0.250025 0 0 0 371.25 -160.51953 L 371.25 -167.38281 L 381.2168 -184.64453 A 0.250025 0.250025 0 0 0 381.22852 -184.86914 L 377.22852 -194.10938 A 0.250025 0.250025 0 0 0 377.125 -194.22656 L 365.125 -201.15625 A 0.250025 0.250025 0 0 0 364.98047 -201.18945 z M 93 -200.65039 L 96.75 -198.48633 L 96.75 -194.1543 L 95.875 -193.64648 A 0.250025 0.250025 0 0 0 95.875 -193.21289 L 108.75 -185.78516 L 108.75 -166.44336 L 93 -157.34961 L 77.25 -166.44336 L 77.25 -185.78516 L 90.125 -193.21289 A 0.250025 0.250025 0 0 0 90.125 -193.64648 L 89.25 -194.1543 L 89.25 -198.48633 L 93 -200.65039 z M 283 -200.65039 L 284.75 -199.63672 L 284.75 -197.48047 A 0.250025 0.250025 0 0 0 285.125 -197.26367 L 287 -198.3418 L 288.75 -197.33594 L 288.75 -189.53516 L 287 -188.5293 L 285.125 -189.60742 A 0.250025 0.250025 0 0 0 284.875 -189.60742 L 283 -188.5293 L 281.25 -189.53516 L 281.25 -199.63672 L 283 -200.65039 z M 311 -200.65039 L 312.75 -199.63672 L 312.75 -189.53516 L 311 -188.5293 L 309.125 -189.60742 A 0.250025 0.250025 0 0 0 308.875 -189.60742 L 307 -188.5293 L 305.25 -189.53516 L 305.25 -197.33594 L 307 -198.3418 L 308.875 -197.26367 A 0.250025 0.250025 0 0 0 309.25 -197.48047 L 309.25 -199.63672 L 311 -200.65039 z M 365 -200.65039 L 376.80273 -193.83398 L 380.7207 -184.78516 L 370.7832 -167.57422 A 0.250025 0.250025 0 0 0 370.75 -167.44922 L 370.75 -160.66406 L 365 -157.34766 L 359.25 -160.66406 L 359.25 -167.44922 A 0.250025 0.250025 0 0 0 359.2168 -167.57422 L 349.2793 -184.78516 L 353.19727 -193.83398 L 365 -200.65039 z M 228.98633 -200.0293 A 0.250025 0.250025 0 0 0 228.79102 -199.91602 L 222.94727 -190.92578 L 219.16406 -194.19922 A 0.250025 0.250025 0 0 0 218.76758 -194.10156 L 211.76758 -176.20117 A 0.250025 0.250025 0 0 0 211.76367 -176.02734 L 215.76367 -164.48828 A 0.250025 0.250025 0 0 0 215.875 -164.35352 L 228.875 -156.84375 A 0.250025 0.250025 0 0 0 229.125 -156.84375 L 242.125 -164.35352 A 0.250025 0.250025 0 0 0 242.23633 -164.48828 L 246.23633 -176.02734 A 0.250025 0.250025 0 0 0 246.22852 -176.20898 L 240.22852 -190.06836 A 0.250025 0.250025 0 0 0 239.875 -190.18555 L 236.0918 -188.00195 L 229.2168 -199.9043 A 0.250025 0.250025 0 0 0 228.98633 -200.0293 z M -176.00781 -199.45898 A 0.250025 0.250025 0 0 0 -176.125 -199.42578 L -182.125 -195.95703 A 0.250025 0.250025 0 0 0 -182.25 -195.74023 L -182.25 -192.2793 A 0.250025 0.250025 0 0 0 -182.2168 -192.1543 L -179.43359 -187.33008 L -182.93164 -187.33008 L -186.85352 -189.61523 A 0.250025 0.250025 0 0 0 -187.10547 -189.61719 L -194.125 -185.56641 A 0.250025 0.250025 0 0 0 -194.25 -185.34961 L -194.25 -171.49023 A 0.250025 0.250025 0 0 0 -194.125 -171.27344 L -190.25 -169.04492 L -190.25 -166.88086 A 0.250025 0.250025 0 0 0 -190.125 -166.66406 L -175.125 -158.00391 A 0.250025 0.250025 0 0 0 -174.875 -158.00391 L -163.875 -164.35352 A 0.250025 0.250025 0 0 0 -163.75 -164.57031 L -163.75 -180.73047 A 0.250025 0.250025 0 0 0 -163.875 -180.94727 L -167.875 -183.25586 A 0.250025 0.250025 0 0 0 -168.125 -183.25586 L -171.75 -181.16406 L -171.75 -186.36523 L -168.875 -188.02344 A 0.250025 0.250025 0 0 0 -168.75 -188.24023 L -168.75 -191.69922 A 0.250025 0.250025 0 0 0 -168.7832 -191.82422 L -171.7832 -197.02539 A 0.250025 0.250025 0 0 0 -172.125 -197.11719 L -175.125 -195.38672 A 0.250025 0.250025 0 0 0 -175.25 -195.16992 L -175.25 -193.29102 L -175.75 -193.57617 L -175.75 -199.21094 A 0.250025 0.250025 0 0 0 -176.00781 -199.45898 z M 153.98633 -199.45898 A 0.250025 0.250025 0 0 0 153.875 -199.42578 L 149.875 -197.11719 L 146.875 -195.38672 A 0.250025 0.250025 0 0 0 146.7832 -195.04492 L 148.20312 -192.57617 A 0.250025 0.250025 0 0 0 148.20312 -192.57422 L 148.6582 -191.79102 L 148.14453 -191.49609 L 146.875 -190.76758 A 0.250025 0.250025 0 0 0 146.87305 -190.76562 L 145.74414 -190.10547 L 143.875 -189.02734 A 0.250025 0.250025 0 0 0 143.75 -188.81055 L 143.75 -184.19922 A 0.250025 0.250025 0 0 0 143.875 -183.98438 L 145.32422 -183.14453 L 146.75 -182.31641 L 146.75 -179 A 0.250025 0.250025 0 0 0 146.7832 -178.875 L 148.6582 -175.63086 L 147.33398 -174.86719 A 0.250025 0.250025 0 0 0 147.33398 -174.86523 L 146.87305 -174.5957 A 0.250025 0.250025 0 0 0 146.7832 -174.25586 L 147.37305 -173.22656 A 0.250025 0.250025 0 0 0 147.37305 -173.22461 L 149.7832 -169.06445 A 0.250025 0.250025 0 0 0 150.125 -168.97266 L 151.9082 -169.99805 L 153.7832 -166.75586 A 0.250025 0.250025 0 0 0 153.875 -166.66406 L 155.51367 -165.71289 L 156.75 -164.99609 L 156.75 -161.67969 A 0.250025 0.250025 0 0 0 156.875 -161.46289 L 160.43359 -159.41406 L 160.87305 -159.1543 A 0.250025 0.250025 0 0 0 161.125 -159.1543 L 164.125 -160.88281 L 165.91797 -161.91797 L 167.7832 -158.66602 A 0.250025 0.250025 0 0 0 168.125 -158.57422 L 171.125 -160.30273 L 175.125 -162.61328 A 0.250025 0.250025 0 0 0 175.2168 -162.95508 L 173.83594 -165.35547 L 173.3418 -166.20898 L 174.125 -166.66406 L 178.125 -168.97266 A 0.250025 0.250025 0 0 0 178.25 -169.18945 L 178.25 -173.80078 A 0.250025 0.250025 0 0 0 178.125 -174.01562 L 176.69531 -174.8457 L 175.25 -175.68359 L 175.25 -179 A 0.250025 0.250025 0 0 0 175.2168 -179.125 L 175.13672 -179.26367 A 0.250025 0.250025 0 0 0 175.13672 -179.26562 L 173.3418 -182.36914 L 174.6543 -183.13281 L 175.125 -183.40234 A 0.250025 0.250025 0 0 0 175.2168 -183.74414 L 172.2168 -188.94531 A 0.250025 0.250025 0 0 0 171.875 -189.03711 L 170.0918 -188 L 168.2168 -191.24414 A 0.250025 0.250025 0 0 0 168.125 -191.33594 L 166.47656 -192.29688 A 0.250025 0.250025 0 0 0 166.47461 -192.29688 L 165.25 -193.00391 L 165.25 -196.32031 A 0.250025 0.250025 0 0 0 165.125 -196.53711 L 161.125 -198.8457 A 0.250025 0.250025 0 0 0 160.875 -198.8457 L 157.875 -197.11719 L 156.0918 -196.08203 L 155.16602 -197.69531 L 154.2168 -199.33594 A 0.250025 0.250025 0 0 0 153.98633 -199.45898 z M 228.98633 -199.30273 L 235.7832 -187.53516 A 0.250025 0.250025 0 0 0 236.125 -187.44336 L 239.88281 -189.61328 L 245.73242 -176.09961 L 241.79492 -164.74023 L 229 -157.34961 L 216.20508 -164.74023 L 212.26562 -176.10547 L 219.10352 -193.58984 L 222.83594 -190.36133 A 0.250025 0.250025 0 0 0 223.20898 -190.41406 L 228.98633 -199.30273 z M 296.98047 -198.88086 A 0.250025 0.250025 0 0 0 296.875 -198.8457 L 291.875 -195.95703 A 0.250025 0.250025 0 0 0 291.75 -195.74023 L 291.75 -189.9707 A 0.250025 0.250025 0 0 0 291.875 -189.75391 L 292.23047 -189.55078 L 280.77539 -166.41016 A 0.250025 0.250025 0 0 0 280.875 -166.08398 L 282.875 -164.92383 A 0.250025 0.250025 0 0 0 283.125 -164.92383 L 285.125 -166.08398 A 0.250025 0.250025 0 0 0 285.22461 -166.18945 L 285.99414 -167.74023 L 294.75 -162.68555 L 294.75 -158.2207 A 0.250025 0.250025 0 0 0 294.875 -158.00391 L 296.875 -156.84375 A 0.250025 0.250025 0 0 0 297.125 -156.84375 L 299.125 -158.00391 A 0.250025 0.250025 0 0 0 299.25 -158.2207 L 299.25 -162.68555 L 308.00586 -167.74023 L 308.77539 -166.18945 A 0.250025 0.250025 0 0 0 308.875 -166.08398 L 310.875 -164.92383 A 0.250025 0.250025 0 0 0 311.125 -164.92383 L 313.125 -166.08398 A 0.250025 0.250025 0 0 0 313.22461 -166.41016 L 301.76953 -189.55078 L 302.125 -189.75391 A 0.250025 0.250025 0 0 0 302.25 -189.9707 L 302.25 -195.74023 A 0.250025 0.250025 0 0 0 302.125 -195.95703 L 297.125 -198.8457 A 0.250025 0.250025 0 0 0 297.00586 -198.88086 A 0.250025 0.250025 0 0 0 296.98047 -198.88086 z M -111.03906 -198.86914 A 0.250025 0.250025 0 0 0 -111.1543 -198.83594 L -115.4043 -196.38672 A 0.250025 0.250025 0 0 0 -115.5293 -196.16992 L -115.5293 -195.07617 L -115.95508 -195.04883 L -116.95508 -194.99609 L -119.27344 -197.91602 A 0.250025 0.250025 0 0 0 -119.5957 -197.97656 L -123.8457 -195.52734 A 0.250025 0.250025 0 0 0 -123.92578 -195.45117 L -126.63672 -191.49023 A 0.250025 0.250025 0 0 0 -126.625 -191.19336 L -124.2207 -188.17188 L -124.2207 -181.45508 L -126.55469 -180.10742 A 0.250025 0.250025 0 0 0 -126.66406 -179.80078 L -123.95312 -172.7207 A 0.250025 0.250025 0 0 0 -123.69531 -172.56055 L -121.37109 -172.79688 L -115.5293 -165.44336 L -115.5293 -162.19922 A 0.250025 0.250025 0 0 0 -115.4043 -161.98438 L -109.99414 -158.86328 A 0.250025 0.250025 0 0 0 -109.74609 -158.86328 L -105.49609 -161.3125 A 0.250025 0.250025 0 0 0 -105.36914 -161.5293 L -105.36914 -162.625 L -104 -162.76758 L -101.625 -159.78516 A 0.250025 0.250025 0 0 0 -101.30469 -159.72266 L -97.054688 -162.17383 A 0.250025 0.250025 0 0 0 -96.974609 -162.24805 L -94.263672 -166.19922 A 0.250025 0.250025 0 0 0 -94.275391 -166.49609 L -96.679688 -169.50781 L -96.679688 -176.24609 L -94.355469 -177.59375 A 0.250025 0.250025 0 0 0 -94.246094 -177.89844 L -96.947266 -184.96875 A 0.250025 0.250025 0 0 0 -97.205078 -185.12891 L -99.529297 -184.90234 L -105.34961 -192.23828 L -105.36914 -195.50195 A 0.250025 0.250025 0 0 0 -105.49414 -195.7168 L -110.88477 -198.82617 A 0.250025 0.250025 0 0 0 -110.89844 -198.83398 L -110.91797 -198.84375 A 0.250025 0.250025 0 0 0 -111.03906 -198.86914 z M 153.9082 -198.86914 L 154.73438 -197.44531 L 155.7832 -195.61523 A 0.250025 0.250025 0 0 0 156.125 -195.52344 L 158.125 -196.68359 L 161 -198.3418 L 164.75 -196.17578 L 164.75 -192.85938 A 0.250025 0.250025 0 0 0 164.875 -192.64258 L 166.22461 -191.86328 L 167.81641 -190.9375 L 169.7832 -187.53516 A 0.250025 0.250025 0 0 0 170.12109 -187.44141 L 170.21094 -187.49219 A 0.250025 0.250025 0 0 0 170.21484 -187.49414 L 171.9082 -188.47852 L 174.6582 -183.71094 L 174.40625 -183.56641 A 0.250025 0.250025 0 0 0 174.4043 -183.56641 L 172.875 -182.67578 A 0.250025 0.250025 0 0 0 172.7832 -182.33398 L 174.70312 -179.01562 L 174.75 -178.93359 L 174.75 -175.53906 A 0.250025 0.250025 0 0 0 174.875 -175.32422 L 176.44531 -174.41406 L 177.75 -173.65625 L 177.75 -169.33398 L 173.875 -167.0957 L 172.875 -166.51562 A 0.250025 0.250025 0 0 0 172.7832 -166.17383 L 173.4043 -165.10547 L 174.6582 -162.92188 L 170.875 -160.73633 L 168.0918 -159.13086 L 166.22656 -162.38477 A 0.250025 0.250025 0 0 0 165.88477 -162.47656 L 163.875 -161.31641 L 161.00195 -159.66016 L 160.6875 -159.8457 A 0.250025 0.250025 0 0 0 160.68555 -159.8457 L 157.25 -161.82422 L 157.25 -165.14062 A 0.250025 0.250025 0 0 0 157.125 -165.35547 L 155.76562 -166.14648 L 154.18359 -167.0625 L 152.2168 -170.46484 A 0.250025 0.250025 0 0 0 151.875 -170.55664 L 150.0918 -169.53125 L 147.80664 -173.47461 L 147.33984 -174.28906 L 147.58594 -174.43359 L 149.125 -175.32422 A 0.250025 0.250025 0 0 0 149.2168 -175.66602 L 147.25 -179.06641 L 147.25 -182.46094 A 0.250025 0.250025 0 0 0 147.125 -182.67578 L 145.57617 -183.57617 L 144.25 -184.34375 L 144.25 -188.66602 L 145.99414 -189.67383 A 0.250025 0.250025 0 0 0 145.99609 -189.67383 L 147.125 -190.33398 L 148.39453 -191.0625 L 149.125 -191.48242 A 0.250025 0.250025 0 0 0 149.2168 -191.82617 L 148.63672 -192.82422 L 147.3418 -195.07812 L 150.125 -196.68359 L 153.9082 -198.86914 z M -176.25 -198.77734 L -176.25 -193.42969 A 0.250025 0.250025 0 0 0 -176.12305 -193.21289 L -175.12305 -192.64258 A 0.250025 0.250025 0 0 0 -174.75 -192.85938 L -174.75 -195.02539 L -172.0918 -196.55859 L -169.25 -191.63281 L -169.25 -188.38477 L -172.125 -186.72656 A 0.250025 0.250025 0 0 0 -172.25 -186.50977 L -172.25 -180.73047 A 0.250025 0.250025 0 0 0 -171.875 -180.51367 L -168 -182.75195 L -164.25 -180.58594 L -164.25 -164.71484 L -175 -158.50781 L -189.75 -167.02344 L -189.75 -169.18945 A 0.250025 0.250025 0 0 0 -189.875 -169.40625 L -193.75 -171.63477 L -193.75 -185.20508 L -186.98047 -189.11133 L -183.125 -186.86328 A 0.250025 0.250025 0 0 0 -183 -186.83008 L -179 -186.83008 A 0.250025 0.250025 0 0 0 -178.7832 -187.20508 L -181.75 -192.34766 L -181.75 -195.5957 L -176.25 -198.77734 z M 297 -198.3418 L 301.75 -195.5957 L 301.75 -190.11523 L 301.31641 -189.86719 A 0.250025 0.250025 0 0 0 301.2168 -189.53906 L 312.67188 -166.39844 L 311 -165.42969 L 309.18945 -166.47852 L 308.33398 -168.20117 A 0.250025 0.250025 0 0 0 307.98438 -168.30664 L 298.875 -163.04688 A 0.250025 0.250025 0 0 0 298.75 -162.83008 L 298.75 -158.36328 L 297 -157.34961 L 295.25 -158.36328 L 295.25 -162.83008 A 0.250025 0.250025 0 0 0 295.125 -163.04688 L 286.01562 -168.30664 A 0.250025 0.250025 0 0 0 285.66602 -168.20117 L 284.80664 -166.47656 L 283 -165.42969 L 281.32812 -166.39844 L 292.7832 -189.53906 A 0.250025 0.250025 0 0 0 292.68359 -189.86719 L 292.25 -190.11523 L 292.25 -195.5957 L 297 -198.3418 z M -111.02734 -198.33203 L -105.86914 -195.35547 L -105.84961 -192.14844 A 0.250025 0.250025 0 0 0 -105.79492 -191.99414 L -99.835938 -184.48438 A 0.250025 0.250025 0 0 0 -99.615234 -184.39062 L -97.345703 -184.61328 L -94.789062 -177.91992 L -97.054688 -176.60547 A 0.250025 0.250025 0 0 0 -97.179688 -176.39062 L -97.179688 -169.41992 A 0.250025 0.250025 0 0 0 -97.125 -169.26367 L -94.78125 -166.32812 L -97.353516 -162.57812 L -101.36914 -160.26367 L -103.69531 -163.18555 A 0.250025 0.250025 0 0 0 -103.91602 -163.2793 L -105.64648 -163.09961 A 0.250025 0.250025 0 0 0 -105.86914 -162.84961 L -105.86914 -161.67383 L -109.86914 -159.36914 L -115.0293 -162.34375 L -115.0293 -165.5293 A 0.250025 0.250025 0 0 0 -115.08398 -165.68555 L -121.06445 -173.21484 A 0.250025 0.250025 0 0 0 -121.28516 -173.30859 L -123.55469 -173.07812 L -126.12109 -179.7793 L -123.8457 -181.09375 A 0.250025 0.250025 0 0 0 -123.7207 -181.31055 L -123.7207 -188.25977 A 0.250025 0.250025 0 0 0 -123.77344 -188.41602 L -126.11914 -191.36133 L -123.54492 -195.12109 L -119.53125 -197.43555 L -117.26562 -194.58398 A 0.250025 0.250025 0 0 0 -117.05664 -194.49023 L -115.92578 -194.55078 A 0.250025 0.250025 0 0 0 -115.92383 -194.55078 L -115.2832 -194.58984 L -115.2793 -194.58984 A 0.250025 0.250025 0 0 0 -115.0293 -194.83984 L -115.0293 -196.02539 L -111.02734 -198.33203 z M 155.00586 -190.80078 A 0.250025 0.250025 0 0 0 154.875 -190.76562 L 153.875 -190.18555 A 0.250025 0.250025 0 0 0 153.75 -189.9707 L 153.75 -187.60938 A 0.250025 0.250025 0 0 0 153.87891 -187.39258 L 156.06836 -186.17188 L 156.87695 -185.71289 A 0.250025 0.250025 0 0 0 157.25 -185.92969 L 157.25 -189.39062 A 0.250025 0.250025 0 0 0 157.12695 -189.60547 L 156.25586 -190.11523 A 0.250025 0.250025 0 0 0 156.25391 -190.11719 L 155.125 -190.76758 A 0.250025 0.250025 0 0 0 155.00586 -190.80078 z M 155 -190.26172 L 156.00391 -189.68359 L 156.75 -189.24609 L 156.75 -186.35938 L 156.3125 -186.60742 L 154.25 -187.75781 L 154.25 -189.82617 L 155 -190.26172 z M -115.28711 -189.4707 A 0.250025 0.250025 0 0 0 -115.30273 -189.46875 L -116.49219 -189.35938 A 0.250025 0.250025 0 0 0 -116.67969 -189.24609 L -117.17969 -188.47656 L -117.25781 -188.35938 A 0.250025 0.250025 0 0 0 -117.30078 -188.2207 L -117.31055 -182.88086 A 0.250025 0.250025 0 0 0 -117.03711 -182.63086 L -116.49609 -182.68164 L -115.25586 -182.80078 A 0.250025 0.250025 0 0 0 -115.0293 -183.05078 L -115.0293 -189.2207 A 0.250025 0.250025 0 0 0 -115.28711 -189.4707 z M -115.5293 -188.94531 L -115.5293 -183.27734 L -116.54297 -183.17969 L -116.81055 -183.1543 L -116.80078 -188.14258 L -116.76172 -188.20117 A 0.250025 0.250025 0 0 0 -116.75977 -188.20312 L -116.32617 -188.87305 L -115.5293 -188.94531 z M 294.99219 -186.75977 A 0.250025 0.250025 0 0 0 294.77539 -186.62109 L 292.5957 -182.21094 A 0.250025 0.250025 0 0 0 292.94531 -181.88281 L 295.125 -183.14258 A 0.250025 0.250025 0 0 0 295.25 -183.35938 L 295.25 -186.50977 A 0.250025 0.250025 0 0 0 294.99219 -186.75977 z M 298.97852 -186.75977 A 0.250025 0.250025 0 0 0 298.75 -186.50977 L 298.75 -183.35938 A 0.250025 0.250025 0 0 0 298.875 -183.14258 L 301.05469 -181.88281 A 0.250025 0.250025 0 0 0 301.4043 -182.21094 L 299.22461 -186.62109 A 0.250025 0.250025 0 0 0 298.97852 -186.75977 z M 294.75 -185.4375 L 294.75 -183.50391 L 293.41211 -182.73047 L 294.75 -185.4375 z M 299.25 -185.4375 L 300.58789 -182.73047 L 299.25 -183.50391 L 299.25 -185.4375 z M 293.64062 -173.08984 A 0.250025 0.250025 0 0 0 293.53516 -173.05664 L 289.54492 -170.74609 A 0.250025 0.250025 0 0 0 289.54492 -170.31445 L 294.875 -167.23438 A 0.250025 0.250025 0 0 0 295.25 -167.44922 L 295.25 -172.07031 A 0.250025 0.250025 0 0 0 295.125 -172.28711 L 293.78516 -173.05664 A 0.250025 0.250025 0 0 0 293.64062 -173.08984 z M 300.31055 -173.08984 A 0.250025 0.250025 0 0 0 300.20508 -173.05664 L 298.875 -172.28711 A 0.250025 0.250025 0 0 0 298.75 -172.07031 L 298.75 -167.44922 A 0.250025 0.250025 0 0 0 299.125 -167.23438 L 304.45508 -170.31445 A 0.250025 0.250025 0 0 0 304.45508 -170.74609 L 300.45508 -173.05664 A 0.250025 0.250025 0 0 0 300.31055 -173.08984 z M 293.66016 -172.55078 L 294.75 -171.92578 L 294.75 -167.88281 L 290.16797 -170.53125 L 293.66016 -172.55078 z M 300.33008 -172.55078 L 303.83203 -170.5293 L 299.25 -167.88281 L 299.25 -171.92578 L 300.33008 -172.55078 z M 164.98047 -172.32031 A 0.250025 0.250025 0 0 0 164.75 -172.07031 L 164.75 -168.60938 A 0.250025 0.250025 0 0 0 164.875 -168.39453 L 166.875 -167.23438 A 0.250025 0.250025 0 0 0 167.125 -167.23438 L 168.125 -167.81445 A 0.250025 0.250025 0 0 0 168.25 -168.0293 L 168.25 -170.33984 A 0.250025 0.250025 0 0 0 168.125 -170.55664 L 167.76562 -170.76562 A 0.250025 0.250025 0 0 0 167.76562 -170.76758 L 165.125 -172.28711 A 0.250025 0.250025 0 0 0 165.00586 -172.32031 A 0.250025 0.250025 0 0 0 164.98047 -172.32031 z M 165.25 -171.63672 L 167.51367 -170.33398 L 167.75 -170.19727 L 167.75 -168.17383 L 167 -167.73828 L 165.25 -168.75391 L 165.25 -171.63672 z M 21.986328 -133.76953 A 0.250025 0.250025 0 0 0 21.875 -133.73633 L 15.875 -130.26562 L 11.875 -127.95703 A 0.250025 0.250025 0 0 0 11.783203 -127.61523 L 25.658203 -103.58203 L 11.875 -95.626953 A 0.250025 0.250025 0 0 0 11.783203 -95.285156 L 15.783203 -88.355469 A 0.250025 0.250025 0 0 0 16.125 -88.263672 L 40.125 -102.12305 A 0.250025 0.250025 0 0 0 40.216797 -102.46484 L 22.216797 -133.64453 A 0.250025 0.250025 0 0 0 21.986328 -133.76953 z M 363.98047 -133.76953 A 0.250025 0.250025 0 0 0 363.875 -133.73633 L 358.875 -130.8457 A 0.250025 0.250025 0 0 0 358.75 -130.63086 L 358.75 -109.12305 L 357.125 -110.06641 A 0.250025 0.250025 0 0 0 356.875 -110.06641 L 351.875 -107.17578 A 0.250025 0.250025 0 0 0 351.7832 -106.83594 L 362.7832 -87.785156 A 0.250025 0.250025 0 0 0 363.125 -87.693359 L 374.125 -94.042969 L 379.125 -96.923828 A 0.250025 0.250025 0 0 0 379.125 -97.355469 L 372.25 -101.33398 L 372.25 -128.90039 A 0.250025 0.250025 0 0 0 372.125 -129.11719 L 364.125 -133.73633 A 0.250025 0.250025 0 0 0 363.98047 -133.76953 z M 435.98633 -133.76953 A 0.250025 0.250025 0 0 0 435.875 -133.73633 L 430.875 -130.8457 L 419.875 -124.49609 A 0.250025 0.250025 0 0 0 419.875 -124.0625 L 426.75 -120.0957 L 426.75 -92.519531 A 0.250025 0.250025 0 0 0 426.875 -92.302734 L 434.875 -87.693359 A 0.250025 0.250025 0 0 0 435.125 -87.693359 L 440.125 -90.574219 A 0.250025 0.250025 0 0 0 440.25 -90.789062 L 440.25 -112.29883 L 441.875 -111.36328 A 0.250025 0.250025 0 0 0 442.125 -111.36328 L 447.125 -114.24414 A 0.250025 0.250025 0 0 0 447.2168 -114.58594 L 436.2168 -133.64453 A 0.250025 0.250025 0 0 0 435.98633 -133.76953 z M 364 -133.23047 L 371.75 -128.75586 L 371.75 -101.18945 A 0.250025 0.250025 0 0 0 371.875 -100.97266 L 378.5 -97.140625 L 373.875 -94.476562 L 363.0918 -88.251953 L 352.3418 -106.86914 L 357 -109.56055 L 358.875 -108.47461 A 0.250025 0.250025 0 0 0 359.25 -108.68945 L 359.25 -130.48633 L 364 -133.23047 z M -33.013672 -133.18945 A 0.250025 0.250025 0 0 0 -33.125 -133.15625 L -39.125 -129.69727 L -57.125 -119.29688 A 0.250025 0.250025 0 0 0 -57.216797 -118.95508 L -39.216797 -87.785156 A 0.250025 0.250025 0 0 0 -38.875 -87.693359 L -34.875 -90.003906 L -28.875 -93.462891 A 0.250025 0.250025 0 0 0 -28.783203 -93.804688 L -42.658203 -117.83789 L -28.875 -125.79297 A 0.250025 0.250025 0 0 0 -28.783203 -126.13477 L -32.783203 -133.06445 A 0.250025 0.250025 0 0 0 -33.013672 -133.18945 z M 21.908203 -133.17773 L 39.658203 -102.43164 L 16.091797 -88.822266 L 12.341797 -95.318359 L 26.125 -103.27344 A 0.250025 0.250025 0 0 0 26.216797 -103.61523 L 12.341797 -127.64844 L 16.125 -129.83398 L 21.908203 -133.17773 z M 435.9082 -133.17773 L 446.6582 -114.55078 L 442 -111.86914 L 440.125 -112.94727 A 0.250025 0.250025 0 0 0 439.75 -112.73047 L 439.75 -90.933594 L 435 -88.199219 L 427.25 -92.664062 L 427.25 -120.24023 A 0.250025 0.250025 0 0 0 427.125 -120.45703 L 420.49805 -124.28125 L 431.125 -130.41406 L 435.9082 -133.17773 z M -182.01953 -132.60938 A 0.250025 0.250025 0 0 0 -182.125 -132.57617 L -184.125 -131.42578 A 0.250025 0.250025 0 0 0 -184.25 -131.21094 L -184.25 -129.33203 L -185.875 -130.26758 A 0.250025 0.250025 0 0 0 -186.125 -130.26758 L -188.125 -129.11719 A 0.250025 0.250025 0 0 0 -188.25 -128.90039 L -188.25 -127.02148 L -189.875 -127.95703 A 0.250025 0.250025 0 0 0 -190.125 -127.95703 L -192.125 -126.80664 A 0.250025 0.250025 0 0 0 -192.25 -126.58984 L -192.25 -114.03516 L -196.125 -111.79688 A 0.250025 0.250025 0 0 0 -196.25 -111.58008 L -196.25 -101.18945 A 0.250025 0.250025 0 0 0 -196.125 -100.97266 L -176.125 -89.423828 A 0.250025 0.250025 0 0 0 -175.875 -89.423828 L -161.875 -97.503906 A 0.250025 0.250025 0 0 0 -161.75 -97.720703 L -161.75 -108.10938 A 0.250025 0.250025 0 0 0 -161.875 -108.32617 L -165.75 -110.56445 L -165.75 -123.11914 A 0.250025 0.250025 0 0 0 -165.875 -123.33594 L -181.875 -132.57617 A 0.250025 0.250025 0 0 0 -182.01953 -132.60938 z M -33.091797 -132.59766 L -29.341797 -126.10156 L -43.125 -118.14648 A 0.250025 0.250025 0 0 0 -43.216797 -117.80469 L -29.341797 -93.771484 L -35.125 -90.4375 A 0.250025 0.250025 0 0 0 -35.125 -90.435547 L -38.908203 -88.251953 L -56.658203 -118.98828 L -38.875 -129.26367 L -33.091797 -132.59766 z M -182 -132.07227 L -166.25 -122.97656 L -166.25 -110.41992 A 0.250025 0.250025 0 0 0 -166.125 -110.20312 L -162.25 -107.96484 L -162.25 -97.865234 L -176 -89.927734 L -195.75 -101.33398 L -195.75 -111.43555 L -191.875 -113.67383 A 0.250025 0.250025 0 0 0 -191.75 -113.89062 L -191.75 -126.44531 L -190 -127.45117 L -188.125 -126.37305 A 0.250025 0.250025 0 0 0 -187.75 -126.58984 L -187.75 -128.75586 L -186 -129.76172 L -184.125 -128.68359 A 0.250025 0.250025 0 0 0 -183.75 -128.90039 L -183.75 -131.06445 L -182 -132.07227 z M 81.986328 -130.29883 A 0.250025 0.250025 0 0 0 81.875 -130.26562 L 75.875 -126.80664 L 71.875 -124.49609 A 0.250025 0.250025 0 0 0 71.783203 -124.1543 L 89.783203 -92.974609 A 0.250025 0.250025 0 0 0 90.125 -92.882812 L 108.125 -103.27344 L 114.125 -106.74414 A 0.250025 0.250025 0 0 0 114.2168 -107.08594 L 110.2168 -114.01562 A 0.250025 0.250025 0 0 0 109.875 -114.10547 L 103.875 -110.63672 L 96.091797 -106.14062 L 82.216797 -130.17578 A 0.250025 0.250025 0 0 0 81.986328 -130.29883 z M 81.908203 -129.70898 L 95.783203 -105.67578 A 0.250025 0.250025 0 0 0 96.125 -105.58398 L 104.125 -110.20312 L 109.9082 -113.54883 L 113.6582 -107.05078 L 107.875 -103.70703 L 90.091797 -93.441406 L 72.341797 -124.18945 L 76.125 -126.37305 L 81.908203 -129.70898 z M 163.98633 -129.15039 A 0.250025 0.250025 0 0 0 163.875 -129.11719 L 157.875 -125.64648 L 139.875 -115.25586 A 0.250025 0.250025 0 0 0 139.7832 -114.91406 L 143.7832 -107.98438 A 0.250025 0.250025 0 0 0 144.125 -107.89258 L 157.9082 -115.85938 L 171.7832 -91.824219 A 0.250025 0.250025 0 0 0 172.125 -91.734375 L 182.125 -97.503906 A 0.250025 0.250025 0 0 0 182.2168 -97.845703 L 164.2168 -129.02539 A 0.250025 0.250025 0 0 0 163.98633 -129.15039 z M 291.99219 -129.15039 A 0.250025 0.250025 0 0 0 291.875 -129.11719 L 275.875 -119.87695 A 0.250025 0.250025 0 0 0 275.7832 -119.53516 L 286.7832 -100.48438 A 0.250025 0.250025 0 0 0 287.125 -100.39258 L 292.125 -103.27344 A 0.250025 0.250025 0 0 0 292.25 -103.49023 L 292.25 -105.36719 L 312.875 -93.462891 A 0.250025 0.250025 0 0 0 313.125 -93.462891 L 318.125 -96.353516 A 0.250025 0.250025 0 0 0 318.25 -96.570312 L 318.25 -105.80078 A 0.250025 0.250025 0 0 0 318.125 -106.01562 L 292.25 -120.96484 L 292.25 -128.90039 A 0.250025 0.250025 0 0 0 291.99219 -129.15039 z M 212.98047 -128.57031 A 0.250025 0.250025 0 0 0 212.875 -128.53711 L 207.875 -125.64648 A 0.250025 0.250025 0 0 0 207.75 -125.42969 L 207.75 -116.19922 A 0.250025 0.250025 0 0 0 207.875 -115.98438 L 233.75 -101.04492 L 233.75 -93.099609 A 0.250025 0.250025 0 0 0 234.125 -92.882812 L 245.125 -99.234375 L 250.125 -102.12305 A 0.250025 0.250025 0 0 0 250.2168 -102.46484 L 239.2168 -121.51562 A 0.250025 0.250025 0 0 0 238.875 -121.60742 L 233.875 -118.72656 A 0.250025 0.250025 0 0 0 233.75 -118.50977 L 233.75 -116.63281 L 213.125 -128.53711 A 0.250025 0.250025 0 0 0 213.00586 -128.57031 A 0.250025 0.250025 0 0 0 212.98047 -128.57031 z M 163.9082 -128.55859 L 181.6582 -97.8125 L 172.0918 -92.291016 L 158.2168 -116.32422 A 0.250025 0.250025 0 0 0 157.875 -116.41602 L 144.0918 -108.45117 L 140.3418 -114.94922 L 158.125 -125.21289 L 163.9082 -128.55859 z M 291.75 -128.4668 L 291.75 -120.82031 A 0.250025 0.250025 0 0 0 291.875 -120.60352 L 317.75 -105.65625 L 317.75 -96.714844 L 313 -93.96875 L 292.125 -106.01562 A 0.250025 0.250025 0 0 0 291.75 -105.80078 L 291.75 -103.63477 L 287.0918 -100.95117 L 276.3418 -119.56836 L 291.75 -128.4668 z M 213 -128.03125 L 233.875 -115.98438 A 0.250025 0.250025 0 0 0 234.25 -116.19922 L 234.25 -118.36523 L 238.9082 -121.04883 L 249.6582 -102.43164 L 244.875 -99.666016 L 234.25 -93.533203 L 234.25 -101.18945 A 0.250025 0.250025 0 0 0 234.125 -101.40625 L 208.25 -116.34375 L 208.25 -125.28516 L 213 -128.03125 z M -126.01953 -127.99023 A 0.250025 0.250025 0 0 0 -126.125 -127.95703 L -132.125 -124.49609 A 0.250025 0.250025 0 0 0 -132.2168 -124.1543 L -114.2168 -92.974609 A 0.250025 0.250025 0 0 0 -113.875 -92.882812 L -89.875 -106.74414 A 0.250025 0.250025 0 0 0 -89.875 -107.17578 L -125.875 -127.95703 A 0.250025 0.250025 0 0 0 -126.01953 -127.99023 z M -126 -127.45117 L -90.498047 -106.95898 L -113.9082 -93.441406 L -131.6582 -124.1875 L -126 -127.45117 z M 16.980469 -64.029297 A 0.250025 0.250025 0 0 0 16.875 -63.996094 L 10.875 -60.537109 A 0.250025 0.250025 0 0 0 10.783203 -60.195312 L 24.658203 -36.162109 L 10.875 -28.207031 A 0.250025 0.250025 0 0 0 10.875 -27.773438 L 20.875 -22.003906 A 0.250025 0.250025 0 0 0 21.125 -22.003906 L 35.125 -30.083984 L 41.125 -33.542969 A 0.250025 0.250025 0 0 0 41.216797 -33.884766 L 27.216797 -58.134766 A 0.250025 0.250025 0 0 0 27.125 -58.226562 L 17.125 -63.996094 A 0.250025 0.250025 0 0 0 16.980469 -64.029297 z M 17 -63.492188 L 26.816406 -57.826172 L 40.658203 -33.851562 L 34.875 -30.515625 L 21 -22.509766 L 11.5 -27.990234 L 25.125 -35.853516 A 0.250025 0.250025 0 0 0 25.216797 -36.195312 L 11.341797 -60.228516 L 17 -63.492188 z M -38.019531 -63.458984 A 0.250025 0.250025 0 0 0 -38.125 -63.425781 L -44.125 -59.957031 L -58.125 -51.876953 A 0.250025 0.250025 0 0 0 -58.216797 -51.535156 L -44.216797 -27.285156 A 0.250025 0.250025 0 0 0 -44.125 -27.193359 L -34.125 -21.423828 A 0.250025 0.250025 0 0 0 -33.875 -21.423828 L -27.875 -24.882812 A 0.250025 0.250025 0 0 0 -27.783203 -25.224609 L -41.658203 -49.257812 L -27.875 -57.212891 A 0.250025 0.250025 0 0 0 -27.875 -57.646484 L -37.875 -63.425781 A 0.250025 0.250025 0 0 0 -38.019531 -63.458984 z M 219.98828 -63.458984 A 0.250025 0.250025 0 0 0 219.875 -63.425781 L 215.875 -61.117188 A 0.250025 0.250025 0 0 0 215.76758 -60.990234 L 211.76758 -50.599609 A 0.250025 0.250025 0 0 0 211.75781 -50.445312 L 215.75781 -35.425781 A 0.250025 0.250025 0 0 0 215.82422 -35.3125 L 226.82422 -24.34375 A 0.250025 0.250025 0 0 0 226.96094 -24.273438 L 237.96094 -22.542969 A 0.250025 0.250025 0 0 0 238.125 -22.574219 L 242.125 -24.882812 A 0.250025 0.250025 0 0 0 242.23242 -25.009766 L 246.23242 -35.400391 A 0.250025 0.250025 0 0 0 246.24219 -35.554688 L 242.24219 -50.574219 A 0.250025 0.250025 0 0 0 242.17578 -50.6875 L 231.17578 -61.65625 A 0.250025 0.250025 0 0 0 231.03906 -61.726562 L 220.03906 -63.457031 A 0.250025 0.250025 0 0 0 219.98828 -63.458984 z M 287.98828 -63.458984 A 0.250025 0.250025 0 0 0 287.875 -63.425781 L 283.875 -61.117188 A 0.250025 0.250025 0 0 0 283.76758 -60.990234 L 279.76758 -50.599609 A 0.250025 0.250025 0 0 0 279.75781 -50.445312 L 283.75781 -35.425781 A 0.250025 0.250025 0 0 0 283.82422 -35.3125 L 294.82422 -24.34375 A 0.250025 0.250025 0 0 0 294.96094 -24.273438 L 305.96094 -22.542969 A 0.250025 0.250025 0 0 0 306.125 -22.574219 L 310.125 -24.882812 A 0.250025 0.250025 0 0 0 310.23242 -25.009766 L 314.23242 -35.400391 A 0.250025 0.250025 0 0 0 314.24219 -35.554688 L 310.24219 -50.574219 A 0.250025 0.250025 0 0 0 310.17578 -50.6875 L 299.17578 -61.65625 A 0.250025 0.250025 0 0 0 299.03906 -61.726562 L 288.03906 -63.457031 A 0.250025 0.250025 0 0 0 287.98828 -63.458984 z M 355.98828 -63.458984 A 0.250025 0.250025 0 0 0 355.875 -63.425781 L 351.875 -61.117188 A 0.250025 0.250025 0 0 0 351.76758 -60.990234 L 347.76758 -50.599609 A 0.250025 0.250025 0 0 0 347.75781 -50.445312 L 351.75781 -35.425781 A 0.250025 0.250025 0 0 0 351.82422 -35.3125 L 362.82422 -24.34375 A 0.250025 0.250025 0 0 0 362.96094 -24.273438 L 373.96094 -22.542969 A 0.250025 0.250025 0 0 0 374.125 -22.574219 L 378.125 -24.882812 A 0.250025 0.250025 0 0 0 378.23242 -25.009766 L 382.23242 -35.400391 A 0.250025 0.250025 0 0 0 382.24219 -35.554688 L 378.24219 -50.574219 A 0.250025 0.250025 0 0 0 378.17578 -50.6875 L 367.17578 -61.65625 A 0.250025 0.250025 0 0 0 367.03906 -61.726562 L 356.03906 -63.457031 A 0.250025 0.250025 0 0 0 355.98828 -63.458984 z M 423.98828 -63.458984 A 0.250025 0.250025 0 0 0 423.875 -63.425781 L 419.875 -61.117188 A 0.250025 0.250025 0 0 0 419.76758 -60.990234 L 415.76758 -50.599609 A 0.250025 0.250025 0 0 0 415.75781 -50.445312 L 419.75781 -35.425781 A 0.250025 0.250025 0 0 0 419.82422 -35.3125 L 430.82422 -24.34375 A 0.250025 0.250025 0 0 0 430.96094 -24.273438 L 441.96094 -22.542969 A 0.250025 0.250025 0 0 0 442.125 -22.574219 L 446.125 -24.882812 A 0.250025 0.250025 0 0 0 446.23242 -25.009766 L 450.23242 -35.400391 A 0.250025 0.250025 0 0 0 450.24219 -35.554688 L 446.24219 -50.574219 A 0.250025 0.250025 0 0 0 446.17578 -50.6875 L 435.17578 -61.65625 A 0.250025 0.250025 0 0 0 435.03906 -61.726562 L 424.03906 -63.457031 A 0.250025 0.250025 0 0 0 423.98828 -63.458984 z M 220.04883 -62.949219 L 230.88281 -61.244141 L 241.77539 -50.380859 L 245.73828 -35.503906 L 241.79883 -25.271484 L 237.95117 -23.050781 L 227.11914 -24.753906 L 216.22461 -35.619141 L 212.26172 -50.496094 L 216.20117 -60.728516 L 220.04883 -62.949219 z M 288.04883 -62.949219 L 298.88281 -61.244141 L 309.77539 -50.380859 L 313.73828 -35.503906 L 309.79883 -25.271484 L 305.95117 -23.050781 L 295.11914 -24.753906 L 284.22461 -35.619141 L 280.26172 -50.496094 L 284.20117 -60.728516 L 288.04883 -62.949219 z M 356.04883 -62.949219 L 366.88281 -61.244141 L 377.77539 -50.380859 L 381.73828 -35.503906 L 377.79883 -25.271484 L 373.95117 -23.050781 L 363.11914 -24.753906 L 352.22461 -35.619141 L 348.26172 -50.496094 L 352.20117 -60.728516 L 356.04883 -62.949219 z M 424.04883 -62.949219 L 434.88086 -61.246094 L 445.77539 -50.380859 L 449.73828 -35.503906 L 445.79883 -25.271484 L 441.95117 -23.050781 L 431.11719 -24.755859 L 420.22461 -35.619141 L 416.26172 -50.496094 L 420.20117 -60.728516 L 424.04883 -62.949219 z M -38 -62.921875 L -28.5 -57.429688 L -42.125 -49.566406 A 0.250025 0.250025 0 0 0 -42.216797 -49.224609 L -28.341797 -25.191406 L -34 -21.929688 L -43.816406 -27.59375 L -57.658203 -51.568359 L -43.875 -59.523438 L -38 -62.921875 z M 81.986328 -62.298828 A 0.250025 0.250025 0 0 0 81.875 -62.265625 L 75.875 -58.806641 A 0.250025 0.250025 0 0 0 75.75 -58.589844 L 75.75 -47.039062 A 0.250025 0.250025 0 0 0 75.783203 -46.914062 L 89.783203 -22.664062 A 0.250025 0.250025 0 0 0 90.125 -22.574219 L 110.125 -34.123047 A 0.250025 0.250025 0 0 0 110.25 -34.339844 L 110.25 -45.890625 A 0.250025 0.250025 0 0 0 109.875 -46.105469 L 103.875 -42.636719 L 96.091797 -38.140625 L 82.216797 -62.175781 A 0.250025 0.250025 0 0 0 81.986328 -62.298828 z M 163.98633 -62.298828 A 0.250025 0.250025 0 0 0 163.875 -62.265625 L 157.875 -58.806641 L 143.875 -50.726562 A 0.250025 0.250025 0 0 0 143.75 -50.509766 L 143.75 -38.960938 A 0.250025 0.250025 0 0 0 144.125 -38.744141 L 157.9082 -46.699219 L 171.7832 -22.664062 A 0.250025 0.250025 0 0 0 172.125 -22.574219 L 178.125 -26.042969 A 0.250025 0.250025 0 0 0 178.25 -26.259766 L 178.25 -37.800781 A 0.250025 0.250025 0 0 0 178.2168 -37.925781 L 164.2168 -62.175781 A 0.250025 0.250025 0 0 0 163.98633 -62.298828 z M 81.908203 -61.708984 L 95.783203 -37.675781 A 0.250025 0.250025 0 0 0 96.125 -37.583984 L 104.125 -42.203125 L 109.75 -45.457031 L 109.75 -34.484375 L 90.091797 -23.130859 L 76.25 -47.107422 L 76.25 -58.445312 L 81.908203 -61.708984 z M 163.9082 -61.708984 L 177.75 -37.732422 L 177.75 -26.404297 L 172.0918 -23.130859 L 158.2168 -47.164062 A 0.250025 0.250025 0 0 0 157.875 -47.255859 L 144.25 -39.392578 L 144.25 -50.365234 L 158.125 -58.373047 L 163.9082 -61.708984 z M -196.01953 -59.990234 A 0.250025 0.250025 0 0 0 -196.125 -59.957031 L -201.125 -57.076172 A 0.250025 0.250025 0 0 0 -201.25 -56.859375 L -201.25 -49.929688 A 0.250025 0.250025 0 0 0 -201.125 -49.712891 L -170.25 -31.884766 L -170.25 -26.259766 A 0.250025 0.250025 0 0 0 -169.875 -26.042969 L -156.875 -33.542969 A 0.250025 0.250025 0 0 0 -156.7832 -33.884766 L -164.7832 -47.744141 A 0.250025 0.250025 0 0 0 -165.125 -47.835938 L -170 -45.019531 L -195.875 -59.957031 A 0.250025 0.250025 0 0 0 -196.01953 -59.990234 z M -120.00781 -59.990234 A 0.250025 0.250025 0 0 0 -120.125 -59.957031 L -133.125 -52.457031 A 0.250025 0.250025 0 0 0 -133.2168 -52.115234 L -125.2168 -38.255859 A 0.250025 0.250025 0 0 0 -124.875 -38.164062 L -120 -40.980469 L -94.125 -26.042969 A 0.250025 0.250025 0 0 0 -93.875 -26.042969 L -88.875 -28.923828 A 0.250025 0.250025 0 0 0 -88.75 -29.140625 L -88.75 -36.070312 A 0.250025 0.250025 0 0 0 -88.875 -36.287109 L -119.75 -54.115234 L -119.75 -59.740234 A 0.250025 0.250025 0 0 0 -120.00781 -59.990234 z M -196 -59.451172 L -170.125 -44.513672 A 0.250025 0.250025 0 0 0 -169.875 -44.513672 L -165.0918 -47.279297 L -157.3418 -33.851562 L -169.75 -26.693359 L -169.75 -32.029297 A 0.250025 0.250025 0 0 0 -169.875 -32.246094 L -200.75 -50.074219 L -200.75 -56.714844 L -196 -59.451172 z M -120.25 -59.306641 L -120.25 -53.970703 A 0.250025 0.250025 0 0 0 -120.125 -53.753906 L -89.25 -35.925781 L -89.25 -29.285156 L -94 -26.548828 L -119.875 -41.486328 A 0.250025 0.250025 0 0 0 -120.125 -41.486328 L -124.9082 -38.720703 L -132.6582 -52.148438 L -120.25 -59.306641 z M 82.980469 1.6601562 A 0.250025 0.250025 0 0 0 82.875 1.6933594 L 80.875 2.84375 A 0.250025 0.250025 0 0 0 80.75 3.0605469 L 80.75 35.390625 A 0.250025 0.250025 0 0 0 80.875 35.607422 L 102.875 48.316406 A 0.250025 0.250025 0 0 0 103.125 48.316406 L 105.125 47.15625 A 0.250025 0.250025 0 0 0 105.25 46.939453 L 105.25 14.609375 A 0.250025 0.250025 0 0 0 105.125 14.392578 L 83.125 1.6933594 A 0.250025 0.250025 0 0 0 82.980469 1.6601562 z M 148.98047 1.6601562 A 0.250025 0.250025 0 0 0 148.875 1.6933594 L 146.875 2.84375 A 0.250025 0.250025 0 0 0 146.75 3.0605469 L 146.75 31.929688 A 0.250025 0.250025 0 0 0 146.875 32.146484 L 174.875 48.306641 A 0.250025 0.250025 0 0 0 175.125 48.306641 L 177.125 47.15625 A 0.250025 0.250025 0 0 0 177.25 46.939453 L 177.25 18.070312 A 0.250025 0.250025 0 0 0 177.125 17.853516 L 149.125 1.6933594 A 0.250025 0.250025 0 0 0 148.98047 1.6601562 z M 83 2.1992188 L 104.75 14.753906 L 104.75 46.796875 L 103 47.810547 L 81.25 35.246094 L 81.25 3.2050781 L 83 2.1992188 z M 149 2.1992188 L 176.75 18.214844 L 176.75 46.794922 L 175 47.800781 L 147.25 31.785156 L 147.25 3.2050781 L 149 2.1992188 z M 214.98047 2.8105469 A 0.250025 0.250025 0 0 0 214.875 2.84375 L 212.92578 3.9707031 L 212.92383 3.9707031 A 0.250025 0.250025 0 0 0 212.75 4.2109375 L 212.75 29.619141 A 0.250025 0.250025 0 0 0 212.875 29.835938 L 242.875 47.15625 A 0.250025 0.250025 0 0 0 243.125 47.15625 L 245.125 46.005859 A 0.250025 0.250025 0 0 0 245.25 45.789062 L 245.25 20.380859 A 0.250025 0.250025 0 0 0 245.125 20.164062 L 215.125 2.84375 A 0.250025 0.250025 0 0 0 214.98047 2.8105469 z M 215 3.3496094 L 244.75 20.523438 L 244.75 45.644531 L 243 46.652344 L 213.25 29.476562 L 213.25 4.359375 L 215 3.3496094 z M 299.98047 3.390625 A 0.250025 0.250025 0 0 0 299.875 3.4238281 L 297.875 4.5742188 L 294.875 6.3027344 A 0.250025 0.250025 0 0 0 294.75 6.5195312 L 294.75 8.3984375 L 293.125 7.4628906 A 0.250025 0.250025 0 0 0 292.875 7.4628906 L 290.875 8.6132812 L 286.875 10.923828 A 0.250025 0.250025 0 0 0 286.75 11.140625 L 286.75 18.070312 A 0.250025 0.250025 0 0 0 286.7832 18.195312 L 290.31445 24.3125 L 290.125 24.203125 A 0.250025 0.250025 0 0 0 289.875 24.203125 L 280.875 29.404297 A 0.250025 0.250025 0 0 0 280.75 29.619141 L 280.75 35.390625 A 0.250025 0.250025 0 0 0 280.7832 35.515625 L 283.7832 40.714844 A 0.250025 0.250025 0 0 0 283.875 40.806641 L 292.875 45.996094 A 0.250025 0.250025 0 0 0 293.125 45.996094 L 296.0293 44.322266 L 304.92383 47.177734 A 0.250025 0.250025 0 0 0 305.125 47.15625 L 313.125 42.537109 A 0.250025 0.250025 0 0 0 313.25 42.320312 L 313.25 38.859375 A 0.250025 0.250025 0 0 0 313.07617 38.621094 L 304.14258 35.753906 L 298.18945 28.876953 A 0.250025 0.250025 0 0 0 298.125 28.824219 L 297.49805 28.460938 L 303.125 25.216797 A 0.250025 0.250025 0 0 0 303.25 25 L 303.25 20.525391 L 306.125 18.867188 L 308.125 17.707031 A 0.250025 0.250025 0 0 0 308.25 17.490234 L 308.25 11.720703 A 0.250025 0.250025 0 0 0 308.2168 11.595703 L 305.2168 6.3945312 A 0.250025 0.250025 0 0 0 305.125 6.3027344 L 300.125 3.4238281 A 0.250025 0.250025 0 0 0 299.98047 3.390625 z M 15.806641 3.7460938 L 15.5 3.9238281 L 11.5 6.234375 L 11.193359 6.4101562 L 11.066406 6.7402344 L 7.0664062 17.130859 L 6.9492188 17.433594 L 7.0332031 17.748047 L 11.033203 32.767578 L 11.103516 33.027344 L 11.294922 33.21875 L 22.294922 44.1875 L 22.523438 44.417969 L 22.845703 44.466797 L 33.845703 46.197266 L 34.193359 46.251953 L 34.5 46.074219 L 38.5 43.765625 L 38.806641 43.587891 L 38.933594 43.257812 L 42.933594 32.867188 L 43.050781 32.564453 L 42.966797 32.251953 L 38.966797 17.230469 L 38.896484 16.970703 L 38.705078 16.78125 L 27.705078 5.8105469 L 27.476562 5.5820312 L 27.154297 5.53125 L 16.154297 3.8027344 L 15.806641 3.7460938 z M 300 3.9277344 L 304.81641 6.703125 L 307.75 11.787109 L 307.75 17.345703 L 305.875 18.433594 L 302.875 20.164062 A 0.250025 0.250025 0 0 0 302.75 20.380859 L 302.75 24.855469 L 296.875 28.244141 A 0.250025 0.250025 0 0 0 296.875 28.675781 L 297.83789 29.234375 L 303.81055 36.132812 A 0.250025 0.250025 0 0 0 303.92383 36.208984 L 312.75 39.042969 L 312.75 42.175781 L 304.9707 46.667969 L 296.07617 43.8125 A 0.250025 0.250025 0 0 0 295.875 43.833984 L 293 45.492188 L 284.18359 40.40625 L 281.25 35.322266 L 281.25 29.763672 L 290 24.708984 L 290.875 25.216797 A 0.250025 0.250025 0 0 0 291.2168 24.875 L 287.25 18.003906 L 287.25 11.285156 L 291.125 9.046875 L 293 7.96875 L 294.875 9.046875 A 0.250025 0.250025 0 0 0 295.25 8.8300781 L 295.25 6.6640625 L 298.125 5.0058594 L 300 3.9277344 z M -188.01172 4.5410156 A 0.250025 0.250025 0 0 0 -188.125 4.5742188 L -192.125 6.8828125 A 0.250025 0.250025 0 0 0 -192.23242 7.0097656 L -196.23242 17.400391 A 0.250025 0.250025 0 0 0 -196.24219 17.554688 L -192.24219 32.574219 A 0.250025 0.250025 0 0 0 -192.17578 32.6875 L -181.17578 43.65625 A 0.250025 0.250025 0 0 0 -181.03906 43.726562 L -170.03906 45.457031 A 0.250025 0.250025 0 0 0 -169.875 45.425781 L -165.875 43.117188 A 0.250025 0.250025 0 0 0 -165.76758 42.990234 L -161.76758 32.599609 A 0.250025 0.250025 0 0 0 -161.75781 32.445312 L -165.75781 17.425781 A 0.250025 0.250025 0 0 0 -165.82422 17.3125 L -176.82422 6.34375 A 0.250025 0.250025 0 0 0 -176.96094 6.2734375 L -187.96094 4.5429688 A 0.250025 0.250025 0 0 0 -188.01172 4.5410156 z M -120.01172 4.5410156 A 0.250025 0.250025 0 0 0 -120.125 4.5742188 L -124.125 6.8828125 A 0.250025 0.250025 0 0 0 -124.23242 7.0097656 L -128.23242 17.400391 A 0.250025 0.250025 0 0 0 -128.24219 17.554688 L -124.24219 32.574219 A 0.250025 0.250025 0 0 0 -124.17578 32.6875 L -113.17578 43.65625 A 0.250025 0.250025 0 0 0 -113.03906 43.726562 L -102.03906 45.457031 A 0.250025 0.250025 0 0 0 -101.875 45.425781 L -97.875 43.117188 A 0.250025 0.250025 0 0 0 -97.767578 42.990234 L -93.767578 32.599609 A 0.250025 0.250025 0 0 0 -93.757812 32.445312 L -97.757812 17.425781 A 0.250025 0.250025 0 0 0 -97.824219 17.3125 L -108.82422 6.34375 A 0.250025 0.250025 0 0 0 -108.96094 6.2734375 L -119.96094 4.5429688 A 0.250025 0.250025 0 0 0 -120.01172 4.5410156 z M -52.011719 4.5410156 A 0.250025 0.250025 0 0 0 -52.125 4.5742188 L -56.125 6.8828125 A 0.250025 0.250025 0 0 0 -56.232422 7.0097656 L -60.232422 17.400391 A 0.250025 0.250025 0 0 0 -60.242188 17.554688 L -56.242188 32.574219 A 0.250025 0.250025 0 0 0 -56.175781 32.6875 L -45.175781 43.65625 A 0.250025 0.250025 0 0 0 -45.039062 43.726562 L -34.039062 45.457031 A 0.250025 0.250025 0 0 0 -33.875 45.425781 L -29.875 43.117188 A 0.250025 0.250025 0 0 0 -29.767578 42.990234 L -25.767578 32.599609 A 0.250025 0.250025 0 0 0 -25.757812 32.445312 L -29.757812 17.425781 A 0.250025 0.250025 0 0 0 -29.824219 17.3125 L -40.824219 6.34375 A 0.250025 0.250025 0 0 0 -40.960938 6.2734375 L -51.960938 4.5429688 A 0.250025 0.250025 0 0 0 -52.011719 4.5410156 z M 349.98047 4.5410156 A 0.250025 0.250025 0 0 0 349.875 4.5742188 L 347.875 5.734375 A 0.250025 0.250025 0 0 0 347.75 5.9492188 L 347.75 26.730469 A 0.250025 0.250025 0 0 0 347.875 26.947266 L 360.81641 34.423828 L 365.7832 43.025391 A 0.250025 0.250025 0 0 0 365.92969 43.140625 L 373.92969 45.449219 A 0.250025 0.250025 0 0 0 374.125 45.425781 L 382.125 40.806641 A 0.250025 0.250025 0 0 0 382.25 40.589844 L 382.25 33.660156 A 0.250025 0.250025 0 0 0 382.23242 33.566406 L 379.23242 26.056641 A 0.250025 0.250025 0 0 0 379.125 25.933594 L 372.25 21.964844 L 372.25 17.490234 A 0.250025 0.250025 0 0 0 372.125 17.273438 L 350.125 4.5742188 A 0.250025 0.250025 0 0 0 349.98047 4.5410156 z M -187.95117 5.0507812 L -177.11719 6.7558594 L -166.22461 17.619141 L -162.26172 32.496094 L -166.20117 42.728516 L -170.04883 44.949219 L -180.88086 43.246094 L -191.77539 32.380859 L -195.73828 17.503906 L -191.79883 7.2714844 L -187.95117 5.0507812 z M -119.95117 5.0507812 L -109.11719 6.7558594 L -98.224609 17.619141 L -94.261719 32.496094 L -98.201172 42.728516 L -102.04883 44.949219 L -112.88086 43.246094 L -123.77539 32.380859 L -127.73828 17.503906 L -123.79883 7.2714844 L -119.95117 5.0507812 z M -51.951172 5.0507812 L -41.117188 6.7558594 L -30.224609 17.619141 L -26.261719 32.496094 L -30.201172 42.728516 L -34.048828 44.949219 L -44.880859 43.246094 L -55.775391 32.380859 L -59.738281 17.503906 L -55.798828 7.2714844 L -51.951172 5.0507812 z M 16.048828 5.0507812 L 26.259766 6.6582031 L 22.949219 8.5742188 L 12.734375 6.9648438 L 16.048828 5.0507812 z M 350 5.078125 L 371.75 17.634766 L 371.75 22.109375 A 0.250025 0.250025 0 0 0 371.875 22.326172 L 378.80078 26.322266 L 381.75 33.708984 L 381.75 40.445312 L 373.9668 44.939453 L 366.16602 42.6875 L 361.2168 34.115234 A 0.250025 0.250025 0 0 0 361.125 34.023438 L 348.25 26.585938 L 348.25 6.09375 L 350 5.078125 z M 26.958984 6.8320312 L 37.591797 17.435547 L 34.041016 19.492188 L 23.408203 8.8867188 L 26.958984 6.8320312 z M 12.160156 7.3789062 L 22.880859 9.0683594 L 33.775391 19.933594 L 37.738281 34.800781 L 33.839844 44.931641 L 23.119141 43.246094 L 12.224609 32.380859 L 8.2617188 17.503906 L 12.160156 7.3789062 z M 423.98633 9.1601562 A 0.250025 0.250025 0 0 0 423.875 9.1933594 L 415.875 13.814453 A 0.250025 0.250025 0 0 0 415.75 14.029297 L 415.75 24.275391 L 410.875 27.09375 A 0.250025 0.250025 0 0 0 410.75 27.310547 L 410.75 29.619141 A 0.250025 0.250025 0 0 0 410.875 29.835938 L 424.875 37.916016 A 0.250025 0.250025 0 0 0 425.125 37.916016 L 430 35.099609 L 438.875 40.226562 A 0.250025 0.250025 0 0 0 439.125 40.226562 L 452.125 32.726562 A 0.250025 0.250025 0 0 0 452.25 32.509766 L 452.25 27.890625 A 0.250025 0.250025 0 0 0 452.125 27.673828 L 447.5 25 L 455.125 20.595703 A 0.250025 0.250025 0 0 0 455.25 20.380859 L 455.25 18.070312 A 0.250025 0.250025 0 0 0 455.125 17.853516 L 441.125 9.7734375 A 0.250025 0.250025 0 0 0 440.875 9.7734375 L 435.03711 13.140625 L 432.17383 10.390625 A 0.250025 0.250025 0 0 0 432.03516 10.322266 L 424.03516 9.1621094 A 0.250025 0.250025 0 0 0 423.98633 9.1601562 z M 424.05078 9.6699219 L 431.88477 10.806641 L 434.82617 13.630859 A 0.250025 0.250025 0 0 0 435.125 13.666016 L 441 10.279297 L 454.75 18.214844 L 454.75 20.236328 L 446.875 24.783203 A 0.250025 0.250025 0 0 0 446.875 25.216797 L 451.75 28.035156 L 451.75 32.365234 L 439 39.720703 L 430.125 34.59375 A 0.250025 0.250025 0 0 0 429.875 34.59375 L 425 37.412109 L 411.25 29.476562 L 411.25 27.455078 L 416.125 24.636719 A 0.250025 0.250025 0 0 0 416.25 24.419922 L 416.25 14.173828 L 424.05078 9.6699219 z M 19.980469 13.779297 A 0.250025 0.250025 0 0 0 19.75 14.029297 L 19.75 15.90625 L 18.125 14.966797 A 0.250025 0.250025 0 0 0 17.75 15.183594 L 17.75 31.349609 A 0.250025 0.250025 0 0 0 17.875 31.566406 L 19.75 32.648438 L 19.75 34.814453 A 0.250025 0.250025 0 0 0 19.875 35.03125 L 21.875 36.185547 A 0.250025 0.250025 0 0 0 22.25 35.96875 L 22.25 34.09375 L 23.75 34.958984 L 23.75 37.123047 A 0.250025 0.250025 0 0 0 23.875 37.339844 L 25.875 38.496094 A 0.250025 0.250025 0 0 0 26.25 38.279297 L 26.25 36.404297 L 26.875 36.763672 A 0.250025 0.250025 0 0 0 27.125 36.763672 L 29.125 35.609375 A 0.250025 0.250025 0 0 0 29.25 35.392578 L 29.25 30.773438 A 0.250025 0.250025 0 0 0 29.216797 30.648438 L 28.341797 29.132812 L 29.125 28.679688 A 0.250025 0.250025 0 0 0 29.25 28.464844 L 29.25 23.845703 A 0.250025 0.250025 0 0 0 29.216797 23.720703 L 27.216797 20.255859 A 0.250025 0.250025 0 0 0 27.125 20.164062 L 26.25 19.660156 L 26.25 17.494141 A 0.250025 0.250025 0 0 0 26.125 17.279297 L 24.125 16.123047 A 0.250025 0.250025 0 0 0 23.75 16.339844 L 23.75 18.214844 L 22.25 17.349609 L 22.25 15.185547 A 0.250025 0.250025 0 0 0 22.125 14.96875 L 20.125 13.814453 A 0.250025 0.250025 0 0 0 20.005859 13.779297 A 0.250025 0.250025 0 0 0 19.980469 13.779297 z M 20.25 14.462891 L 21.75 15.330078 L 21.75 17.494141 A 0.250025 0.250025 0 0 0 21.875 17.710938 L 23.875 18.865234 A 0.250025 0.250025 0 0 0 24.25 18.648438 L 24.25 16.773438 L 25.75 17.638672 L 25.75 19.804688 A 0.250025 0.250025 0 0 0 25.875 20.021484 L 26.816406 20.564453 L 28.75 23.914062 L 28.75 28.320312 L 27.875 28.824219 A 0.250025 0.250025 0 0 0 27.783203 29.166016 L 28.75 30.839844 L 28.75 35.248047 L 27 36.257812 L 26.125 35.753906 A 0.250025 0.250025 0 0 0 25.75 35.970703 L 25.75 37.845703 L 24.25 36.980469 L 24.25 34.814453 A 0.250025 0.250025 0 0 0 24.125 34.597656 L 22.125 33.443359 A 0.250025 0.250025 0 0 0 21.75 33.660156 L 21.75 35.535156 L 20.25 34.669922 L 20.25 32.505859 A 0.250025 0.250025 0 0 0 20.125 32.289062 L 18.25 31.205078 L 18.25 15.617188 L 19.875 16.554688 A 0.250025 0.250025 0 0 0 20.25 16.339844 L 20.25 14.462891 z M 37.841797 17.869141 L 41.708984 32.388672 L 38.158203 34.433594 L 34.291016 19.923828 L 37.841797 17.869141 z M 19.980469 18.398438 A 0.250025 0.250025 0 0 0 19.75 18.648438 L 19.75 23.267578 A 0.250025 0.250025 0 0 0 19.875 23.484375 L 25.875 26.947266 A 0.250025 0.250025 0 0 0 26.125 26.947266 L 27.125 26.371094 A 0.250025 0.250025 0 0 0 27.25 26.154297 L 27.25 23.845703 A 0.250025 0.250025 0 0 0 27.216797 23.720703 L 26.216797 21.988281 A 0.250025 0.250025 0 0 0 26.125 21.896484 L 20.125 18.431641 A 0.250025 0.250025 0 0 0 20.005859 18.398438 A 0.250025 0.250025 0 0 0 19.980469 18.398438 z M 20.25 19.082031 L 25.816406 22.296875 L 26.75 23.912109 L 26.75 26.009766 L 26 26.441406 L 20.25 23.123047 L 20.25 19.082031 z M 19.980469 25.326172 A 0.250025 0.250025 0 0 0 19.75 25.576172 L 19.75 30.195312 A 0.250025 0.250025 0 0 0 19.875 30.412109 L 25.875 33.876953 A 0.250025 0.250025 0 0 0 26.125 33.876953 L 27.125 33.298828 A 0.250025 0.250025 0 0 0 27.25 33.082031 L 27.25 30.773438 A 0.250025 0.250025 0 0 0 27.216797 30.648438 L 26.216797 28.916016 A 0.250025 0.250025 0 0 0 26.125 28.824219 L 20.125 25.361328 A 0.250025 0.250025 0 0 0 20.005859 25.326172 A 0.250025 0.250025 0 0 0 19.980469 25.326172 z M 20.25 26.009766 L 25.816406 29.224609 L 26.75 30.839844 L 26.75 32.939453 L 26 33.371094 L 20.25 30.050781 L 20.25 26.009766 z M 41.513672 33.078125 L 37.798828 42.728516 L 34.484375 44.640625 L 38.201172 34.988281 L 41.513672 33.078125 z"/></svg>